<svg width="186" height="150" viewBox="0 0 186 150" fill="none" xmlns="http://www.w3.org/2000/svg">
<path fill-rule="evenodd" clip-rule="evenodd" d="M80.2 55.7012L56.1 57.7012V99.7012C56.1 112.101 58.6 121.201 63.6 126.801C68.6 132.501 77.9 135.301 91.3 135.301H101.7V111.801H93.6C88.2 111.801 84.6 110.701 82.9 108.601C81.1 106.501 80.3 102.801 80.3 97.5012V55.7012H80.2Z" fill="black"/>
<path fill-rule="evenodd" clip-rule="evenodd" d="M80.2 22.3C80.2 16.1 74.4 11 68.1 11C61.9 11 56 16.1 56 22.3V57.8H80.1V22.3H80.2Z" fill="#4947BE"/>
<path fill-rule="evenodd" clip-rule="evenodd" d="M91.5 57.7C97.7 57.7 102.8 51.9 102.8 45.6C102.8 39.4 97.7 33.5 91.5 33.5H56.1V57.6H91.5V57.7Z" fill="#4947BE"/>
<path d="M107.76 96.48C104.54 96.48 102.03 95.61 100.23 93.87C98.43 92.13 97.53 89.69 97.53 86.55V75H104.61V86.34C104.61 87.88 104.88 89 105.42 89.7C105.98 90.4 106.78 90.75 107.82 90.75C108.86 90.75 109.65 90.4 110.19 89.7C110.75 89 111.03 87.88 111.03 86.34V75H117.99V86.55C117.99 89.69 117.09 92.13 115.29 93.87C113.49 95.61 110.98 96.48 107.76 96.48ZM141.935 75V96H136.115L128.135 86.46V96H121.235V75H127.055L135.035 84.54V75H141.935ZM162.807 90.66V96H145.347V75H162.417V80.34H152.307V82.8H161.187V87.9H152.307V90.66H162.807ZM173.362 96.48C171.622 96.48 169.922 96.29 168.262 95.91C166.622 95.51 165.272 94.98 164.212 94.32L166.492 89.16C167.492 89.74 168.612 90.21 169.852 90.57C171.092 90.91 172.282 91.08 173.422 91.08C174.402 91.08 175.102 90.99 175.522 90.81C175.942 90.61 176.152 90.32 176.152 89.94C176.152 89.5 175.872 89.17 175.312 88.95C174.772 88.73 173.872 88.49 172.612 88.23C170.992 87.89 169.642 87.53 168.562 87.15C167.482 86.75 166.542 86.11 165.742 85.23C164.942 84.33 164.542 83.12 164.542 81.6C164.542 80.28 164.912 79.08 165.652 78C166.392 76.92 167.492 76.07 168.952 75.45C170.432 74.83 172.222 74.52 174.322 74.52C175.762 74.52 177.172 74.68 178.552 75C179.952 75.3 181.182 75.75 182.242 76.35L180.112 81.48C178.052 80.44 176.102 79.92 174.262 79.92C172.442 79.92 171.532 80.36 171.532 81.24C171.532 81.66 171.802 81.98 172.342 82.2C172.882 82.4 173.772 82.62 175.012 82.86C176.612 83.16 177.962 83.51 179.062 83.91C180.162 84.29 181.112 84.92 181.912 85.8C182.732 86.68 183.142 87.88 183.142 89.4C183.142 90.72 182.772 91.92 182.032 93C181.292 94.06 180.182 94.91 178.702 95.55C177.242 96.17 175.462 96.48 173.362 96.48Z" fill="black"/>
</svg>
