<svg id="photo-013" xmlns="http://www.w3.org/2000/svg" width="150.151" height="47.61" viewBox="0 0 150.151 47.61">
  <g id="appstore_w" transform="translate(0 0)">
    <rect id="Rectangle-2-Copy-3" width="150" height="47" rx="6" transform="translate(0.027 0.61)" fill="rgba(255,255,255,0.25)"/>
    <g id="Group-9" transform="translate(13.764 8.759)">
      <path id="Fill-2" d="M19.168,14.307A6.5,6.5,0,0,1,22.22,8.857a6.535,6.535,0,0,0-5.17-2.833c-2.175-.232-4.284,1.319-5.392,1.319-1.13,0-2.836-1.3-4.675-1.258A6.872,6.872,0,0,0,1.19,9.666c-2.505,4.4-.637,10.857,1.764,14.41,1.2,1.741,2.6,3.683,4.44,3.615,1.8-.074,2.468-1.161,4.636-1.161,2.148,0,2.779,1.161,4.651,1.116,1.928-.029,3.142-1.747,4.3-3.5a14.44,14.44,0,0,0,1.967-4.06,6.266,6.266,0,0,1-3.781-5.775" transform="translate(0 1.508)" fill="#fff"/>
      <path id="Fill-3" d="M13.225,4.582A6.452,6.452,0,0,0,14.669,0a6.4,6.4,0,0,0-4.155,2.179A6.137,6.137,0,0,0,9.033,6.592a5.281,5.281,0,0,0,4.193-2.009" transform="translate(2.261)" fill="#fff"/>
      <path id="Fill-4" d="M38.885,25.345H36.35l-1.389-4.33H30.134l-1.323,4.33H26.342l4.784-14.739H34.08ZM34.542,19.2l-1.256-3.848q-.2-.591-.749-2.778h-.045q-.221.94-.706,2.778L30.552,19.2Z" transform="translate(6.619 2.665)" fill="#fff"/>
      <path id="Fill-5" d="M48.657,19.008a5.989,5.989,0,0,1-1.485,4.285,4.37,4.37,0,0,1-3.3,1.4,3.313,3.313,0,0,1-3.059-1.509v5.577H38.43V17.318q0-1.7-.088-3.493h2.093l.133,1.686h.045a4.254,4.254,0,0,1,6.778-.419A5.846,5.846,0,0,1,48.657,19.008Zm-2.425.086a4.35,4.35,0,0,0-.706-2.558,2.446,2.446,0,0,0-2.072-1.05,2.482,2.482,0,0,0-1.6.58,2.676,2.676,0,0,0-.937,1.521,3.043,3.043,0,0,0-.11.718v1.774a2.829,2.829,0,0,0,.717,1.957,2.388,2.388,0,0,0,1.862.8,2.446,2.446,0,0,0,2.093-1.028A4.5,4.5,0,0,0,46.232,19.094Z" transform="translate(9.634 3.419)" fill="#fff"/>
      <path id="Fill-6" d="M57.658,19.008a5.989,5.989,0,0,1-1.485,4.285,4.372,4.372,0,0,1-3.3,1.4,3.315,3.315,0,0,1-3.059-1.509v5.577H47.43V17.318q0-1.7-.088-3.493h2.093l.133,1.686h.045a4.255,4.255,0,0,1,6.779-.419A5.852,5.852,0,0,1,57.658,19.008Zm-2.426.086a4.35,4.35,0,0,0-.707-2.558,2.44,2.44,0,0,0-2.07-1.05,2.492,2.492,0,0,0-1.6.58,2.68,2.68,0,0,0-.936,1.521,3.115,3.115,0,0,0-.112.718v1.774a2.839,2.839,0,0,0,.716,1.957,2.393,2.393,0,0,0,1.864.8,2.443,2.443,0,0,0,2.093-1.028A4.5,4.5,0,0,0,55.232,19.094Z" transform="translate(11.895 3.419)" fill="#fff"/>
      <path id="Fill-7" d="M68.557,21.429a3.918,3.918,0,0,1-1.321,3.061,5.884,5.884,0,0,1-4.047,1.29,7.109,7.109,0,0,1-3.847-.918l.55-1.968a6.673,6.673,0,0,0,3.439.919,3.262,3.262,0,0,0,2.093-.6,1.956,1.956,0,0,0,.751-1.606,2.048,2.048,0,0,0-.618-1.511,5.751,5.751,0,0,0-2.049-1.135q-3.9-1.444-3.9-4.222a3.718,3.718,0,0,1,1.377-2.974,5.477,5.477,0,0,1,3.649-1.16,7.257,7.257,0,0,1,3.373.7l-.6,1.925a5.935,5.935,0,0,0-2.855-.678,2.916,2.916,0,0,0-1.969.612,1.748,1.748,0,0,0-.6,1.336,1.794,1.794,0,0,0,.686,1.442,7.7,7.7,0,0,0,2.159,1.138,7.334,7.334,0,0,1,2.821,1.792,3.718,3.718,0,0,1,.908,2.557" transform="translate(14.911 2.665)" fill="#fff"/>
      <path id="Fill-8" d="M74.865,16.028H72.242v5.16q0,1.969,1.389,1.967a4.214,4.214,0,0,0,1.057-.11l.066,1.793a5.429,5.429,0,0,1-1.85.261,2.871,2.871,0,0,1-2.206-.854,4.159,4.159,0,0,1-.794-2.865V16.023H68.342V14.251H69.9V12.305l2.338-.7v2.646h2.624v1.777" transform="translate(17.172 2.916)" fill="#fff"/>
      <path id="Fill-9" d="M84.835,19.048a5.8,5.8,0,0,1-1.411,4.024A5.054,5.054,0,0,1,79.5,24.69a4.811,4.811,0,0,1-3.759-1.552,5.622,5.622,0,0,1-1.4-3.913,5.76,5.76,0,0,1,1.444-4.045,5.024,5.024,0,0,1,3.891-1.575,4.921,4.921,0,0,1,3.791,1.553A5.555,5.555,0,0,1,84.835,19.048Zm-2.467.054a4.73,4.73,0,0,0-.637-2.508,2.359,2.359,0,0,0-2.139-1.265,2.392,2.392,0,0,0-2.183,1.265,4.8,4.8,0,0,0-.639,2.552,4.7,4.7,0,0,0,.639,2.508,2.451,2.451,0,0,0,4.3-.02A4.758,4.758,0,0,0,82.368,19.1Z" transform="translate(18.68 3.419)" fill="#fff"/>
      <path id="Fill-10" d="M90.076,15.9a4.18,4.18,0,0,0-.75-.064,2.252,2.252,0,0,0-1.94.94,3.517,3.517,0,0,0-.594,2.1v5.577h-2.38V17.172c0-1.224-.023-2.341-.069-3.346h2.073l.087,2.033h.066a3.638,3.638,0,0,1,1.19-1.683,2.889,2.889,0,0,1,1.72-.57,3.986,3.986,0,0,1,.6.043l0,2.253" transform="translate(21.192 3.419)" fill="#fff"/>
      <path id="Fill-11" d="M99.863,18.652a5.494,5.494,0,0,1-.087,1.071H92.636a3.07,3.07,0,0,0,1.035,2.408,3.564,3.564,0,0,0,2.335.742,7.931,7.931,0,0,0,2.889-.5l.373,1.639a9.02,9.02,0,0,1-3.592.657,5.229,5.229,0,0,1-3.914-1.453,5.354,5.354,0,0,1-1.421-3.9,6.05,6.05,0,0,1,1.324-4,4.576,4.576,0,0,1,3.746-1.7,4,4,0,0,1,3.506,1.7A5.7,5.7,0,0,1,99.863,18.652Zm-2.27-.612a3.179,3.179,0,0,0-.462-1.815,2.083,2.083,0,0,0-1.9-.986,2.261,2.261,0,0,0-1.895.962,3.514,3.514,0,0,0-.7,1.836Z" transform="translate(22.7 3.419)" fill="#fff"/>
      <g id="Available-on-the" transform="translate(33.852 0.074)">
        <path id="Fill-12" d="M6.264,7.719H5.008l-.687-2.16H1.932l-.656,2.16H.054L2.422.364H3.884l2.38,7.355ZM4.114,4.652,3.492,2.732c-.065-.2-.186-.654-.371-1.385H3.1c-.076.316-.186.775-.35,1.385L2.139,4.652Z" transform="translate(-0.054 0.017)" fill="#fff" fill-rule="evenodd"/>
        <path id="Fill-13" d="M10.773,2l-2.008,5.3H7.619L5.676,2H6.942l.906,2.8c.153.469.283.916.381,1.341h.033c.088-.381.218-.829.381-1.341l.9-2.8h1.235" transform="translate(1.359 0.429)" fill="#fff" fill-rule="evenodd"/>
        <path id="Fill-14" d="M13.828,7.329l-.088-.611h-.033a1.808,1.808,0,0,1-1.549.731,1.543,1.543,0,0,1-1.626-1.561c0-1.309,1.135-1.986,3.1-1.986V3.8c0-.7-.371-1.048-1.1-1.048a2.476,2.476,0,0,0-1.385.394L10.9,2.375a3.4,3.4,0,0,1,1.823-.459c1.385,0,2.085.731,2.085,2.194V6.064a7.882,7.882,0,0,0,.076,1.266Zm-.164-2.641c-1.31,0-1.964.317-1.964,1.069a.751.751,0,0,0,.807.829,1.128,1.128,0,0,0,1.157-1.079V4.687Z" transform="translate(2.579 0.408)" fill="#fff" fill-rule="evenodd"/>
        <path id="Fill-15" d="M16.19,1.588a.692.692,0,0,1-.7-.71.721.721,0,0,1,1.44,0,.69.69,0,0,1-.742.71Zm-.567.874H16.8v5.3H15.623Z" transform="translate(3.825 -0.029)" fill="#fff" fill-rule="evenodd"/>
        <path id="Fill-16" d="M18.212.059H19.39V7.8H18.212Z" transform="translate(4.509 -0.059)" fill="#fff" fill-rule="evenodd"/>
        <path id="Fill-17" d="M23.818,7.329l-.089-.611H23.7a1.808,1.808,0,0,1-1.55.731,1.543,1.543,0,0,1-1.626-1.561c0-1.309,1.135-1.986,3.1-1.986V3.8c0-.7-.371-1.048-1.1-1.048a2.476,2.476,0,0,0-1.385.394l-.241-.776a3.4,3.4,0,0,1,1.823-.459c1.385,0,2.086.731,2.086,2.194V6.063a8.182,8.182,0,0,0,.074,1.266Zm-.164-2.641c-1.31,0-1.964.317-1.964,1.069a.751.751,0,0,0,.807.829,1.128,1.128,0,0,0,1.157-1.079V4.688Z" transform="translate(5.089 0.407)" fill="#fff" fill-rule="evenodd"/>
        <path id="Fill-18" d="M28.312,7.916a1.8,1.8,0,0,1-1.669-.939h-.023l-.067.819h-1c.032-.425.043-.906.043-1.429V.059h1.181V3.268H26.8a1.82,1.82,0,0,1,1.691-.884c1.277,0,2.172,1.092,2.172,2.684,0,1.646-.994,2.847-2.347,2.847ZM28.072,3.31a1.356,1.356,0,0,0-1.3,1.408v.928a1.3,1.3,0,0,0,1.277,1.331c.883,0,1.409-.72,1.409-1.865,0-1.069-.548-1.8-1.388-1.8Z" transform="translate(6.352 -0.059)" fill="#fff" fill-rule="evenodd"/>
        <path id="Fill-19" d="M31.027.059H32.2V7.8H31.027Z" transform="translate(7.728 -0.059)" fill="#fff" fill-rule="evenodd"/>
        <path id="Fill-20" d="M38.032,4.963H34.495a1.522,1.522,0,0,0,1.669,1.571,3.98,3.98,0,0,0,1.43-.251l.183.819A4.42,4.42,0,0,1,36,7.429a2.462,2.462,0,0,1-2.641-2.673,2.59,2.59,0,0,1,2.51-2.848,2.229,2.229,0,0,1,2.205,2.521,2.268,2.268,0,0,1-.041.534Zm-1.079-.84c0-.819-.416-1.4-1.169-1.4a1.4,1.4,0,0,0-1.289,1.4Z" transform="translate(8.314 0.405)" fill="#fff" fill-rule="evenodd"/>
        <path id="Fill-21" d="M43.314,7.449a2.524,2.524,0,0,1-2.554-2.728,2.583,2.583,0,0,1,2.642-2.8,2.5,2.5,0,0,1,2.554,2.718,2.6,2.6,0,0,1-2.643,2.814Zm.045-4.671c-.851,0-1.4.8-1.4,1.909,0,1.092.557,1.888,1.385,1.888s1.385-.851,1.385-1.91c0-1.079-.545-1.887-1.374-1.887Z" transform="translate(10.174 0.408)" fill="#fff" fill-rule="evenodd"/>
        <path id="Fill-22" d="M50.91,7.329H49.733V4.284c0-.938-.361-1.408-1.07-1.408a1.225,1.225,0,0,0-1.179,1.3V7.329H46.307V3.542c0-.469-.014-.972-.045-1.517H47.3l.055.819h.034a1.9,1.9,0,0,1,1.68-.928c1.111,0,1.842.851,1.842,2.237V7.329" transform="translate(11.557 0.407)" fill="#fff" fill-rule="evenodd"/>
        <path id="Fill-23" d="M56.786,3.153h-1.3V5.728q0,.983.686.983a2.341,2.341,0,0,0,.524-.055l.033.9a2.626,2.626,0,0,1-.915.132c-.93,0-1.483-.513-1.483-1.855V3.153h-.773V2.269h.773V1.3L55.49.948v1.32h1.3v.885" transform="translate(13.391 0.164)" fill="#fff" fill-rule="evenodd"/>
        <path id="Fill-24" d="M62.051,7.8H60.871V4.773c0-.949-.361-1.429-1.069-1.429A1.154,1.154,0,0,0,58.625,4.6V7.8h-1.18V.059h1.18V3.245h.022a1.783,1.783,0,0,1,1.593-.862c1.123,0,1.81.873,1.81,2.259V7.8" transform="translate(14.366 -0.059)" fill="#fff" fill-rule="evenodd"/>
        <path id="Fill-25" d="M66.877,4.963H63.34a1.521,1.521,0,0,0,1.669,1.571,3.954,3.954,0,0,0,1.428-.251l.184.819a4.419,4.419,0,0,1-1.779.327A2.462,2.462,0,0,1,62.2,4.756a2.589,2.589,0,0,1,2.509-2.848,2.228,2.228,0,0,1,2.2,2.521,2.282,2.282,0,0,1-.039.534ZM65.8,4.123c0-.819-.414-1.4-1.167-1.4a1.4,1.4,0,0,0-1.289,1.4Z" transform="translate(15.562 0.405)" fill="#fff" fill-rule="evenodd"/>
      </g>
    </g>
    <path id="Combined-Shape-Copy" d="M7.508,0H142.644a7.507,7.507,0,0,1,7.508,7.508V40.041a7.507,7.507,0,0,1-7.508,7.508H7.508A7.508,7.508,0,0,1,0,40.041V7.508A7.508,7.508,0,0,1,7.508,0Zm0,1.251A6.256,6.256,0,0,0,1.251,7.508V40.041A6.256,6.256,0,0,0,7.508,46.3H142.644a6.257,6.257,0,0,0,6.256-6.256V7.508a6.257,6.257,0,0,0-6.256-6.256Z" transform="translate(0 0)" fill="#fff"/>
  </g>
</svg>
