<svg xmlns="http://www.w3.org/2000/svg" width="170.81" height="47.61" viewBox="0 0 170.81 47.61">
  <g id="photo-014" transform="translate(0.298)">
    <g id="playstore_w" transform="translate(0 0)">
      <rect id="Rectangle-2-Copy-2" width="170" height="47" rx="6" transform="translate(-0.298 0.61)" fill="rgba(255,255,255,0.25)"/>
      <g id="Page-1" transform="translate(51.642 8.759)">
        <path id="Fill-1" d="M7.9,4.326a3.389,3.389,0,0,1-.932,2.506A3.641,3.641,0,0,1,4.211,7.943,3.775,3.775,0,0,1,1.448,6.816,3.771,3.771,0,0,1,.311,4.022a3.774,3.774,0,0,1,1.137-2.8A3.778,3.778,0,0,1,4.211.1a3.88,3.88,0,0,1,1.54.314,3.1,3.1,0,0,1,1.175.838l-.661.661a2.536,2.536,0,0,0-2.055-.891,2.9,2.9,0,0,0-2.915,3,2.9,2.9,0,0,0,2.915,3,2.847,2.847,0,0,0,2.1-.838,2.354,2.354,0,0,0,.628-1.52H4.211v-.9H7.849A3.218,3.218,0,0,1,7.9,4.326Z" transform="translate(0.078 0.025)" fill="#fff" fill-rule="evenodd"/>
        <path id="Fill-3" d="M4.236.25A3.672,3.672,0,0,0,1.561,1.342a3.672,3.672,0,0,0-1.1,2.705,3.67,3.67,0,0,0,1.1,2.705A3.67,3.67,0,0,0,4.236,7.843,3.534,3.534,0,0,0,6.9,6.771a3.287,3.287,0,0,0,.9-2.42,2.976,2.976,0,0,0-.034-.44H4.361v.651H7.1L7.086,4.7a2.5,2.5,0,0,1-.664,1.6,2.988,2.988,0,0,1-2.186.875A3.029,3.029,0,0,1,1.2,4.047,3.027,3.027,0,0,1,4.236.924,2.684,2.684,0,0,1,6.3,1.757l.483-.484A3.06,3.06,0,0,0,5.728.555,3.772,3.772,0,0,0,4.236.25m0,7.843A3.91,3.91,0,0,1,1.386,6.93,3.91,3.91,0,0,1,.211,4.047,3.917,3.917,0,0,1,1.386,1.163,3.916,3.916,0,0,1,4.236,0a4,4,0,0,1,1.59.325A3.221,3.221,0,0,1,7.048,1.2l.073.089-.837.838L6.2,2.02a2.4,2.4,0,0,0-1.959-.846,2.775,2.775,0,0,0-2.79,2.873,2.777,2.777,0,0,0,2.79,2.874,2.736,2.736,0,0,0,2.008-.8,2.185,2.185,0,0,0,.578-1.306H4.111V3.66H7.979l.019.1a3.306,3.306,0,0,1,.054.588,3.524,3.524,0,0,1-.968,2.6A3.774,3.774,0,0,1,4.236,8.093" transform="translate(0.053 0)" fill="#fff" fill-rule="evenodd"/>
        <path id="Fill-5" d="M11.866,1.157H8.448v2.38H11.53v.9H8.448v2.38h3.418v.923H7.483V.235h4.383Z" transform="translate(1.88 0.059)" fill="#fff" fill-rule="evenodd"/>
        <path id="Fill-7" d="M7.634,7.642h4.133V6.97H8.347V4.339H11.43V3.688H8.347V1.056h3.42V.385H7.634Zm4.383.25H7.384V.134h4.633V1.308H8.6v2.13H11.68V4.59H8.6V6.72h3.418Z" transform="translate(1.855 0.033)" fill="#fff" fill-rule="evenodd"/>
        <path id="Fill-9" d="M14.852,7.742h-.965V1.157h-2.1V.234h5.159v.922h-2.1Z" transform="translate(2.962 0.059)" fill="#fff" fill-rule="evenodd"/>
        <path id="Fill-11" d="M14.037,7.642h.714V1.056h2.1V.385H11.94v.672h2.1Zm.965.25H13.787V1.308h-2.1V.134H17.1V1.308H15Z" transform="translate(2.937 0.033)" fill="#fff" fill-rule="evenodd"/>
        <path id="Fill-13" d="M18.9,7.742h.965V.235H18.9Z" transform="translate(4.748 0.059)" fill="#fff" fill-rule="evenodd"/>
        <path id="Fill-15" d="M19.048,7.642h.713V.385h-.713Zm-.252.25h1.215V.135H18.8Z" transform="translate(4.723 0.034)" fill="#fff" fill-rule="evenodd"/>
        <path id="Fill-16" d="M23.7,7.742h-.965V1.157h-2.1V.234H25.8v.922H23.7Z" transform="translate(5.186 0.059)" fill="#fff" fill-rule="evenodd"/>
        <path id="Fill-17" d="M22.886,7.642H23.6V1.056h2.1V.385H20.79v.672h2.1Zm.965.25H22.637V1.308h-2.1V.134h5.408V1.308h-2.1Z" transform="translate(5.161 0.033)" fill="#fff" fill-rule="evenodd"/>
        <path id="Fill-18" d="M29.1,6.177a2.888,2.888,0,0,0,4.079,0,2.94,2.94,0,0,0,.835-2.155,2.938,2.938,0,0,0-.835-2.155,2.885,2.885,0,0,0-4.079,0,2.942,2.942,0,0,0-.833,2.155A2.944,2.944,0,0,0,29.1,6.177m4.792.628a3.9,3.9,0,0,1-5.5,0,3.836,3.836,0,0,1-1.106-2.783A3.839,3.839,0,0,1,28.39,1.238a3.886,3.886,0,0,1,5.5.005A3.838,3.838,0,0,1,35,4.022,3.841,3.841,0,0,1,33.895,6.8" transform="translate(6.856 0.025)" fill="#fff" fill-rule="evenodd"/>
        <path id="Fill-19" d="M29.217,6.114a2.76,2.76,0,0,0,3.9,0,2.828,2.828,0,0,0,.8-2.067,2.83,2.83,0,0,0-.8-2.067,2.763,2.763,0,0,0-3.9,0,2.834,2.834,0,0,0-.8,2.067,2.832,2.832,0,0,0,.8,2.067m1.951,1.057a2.9,2.9,0,0,1-2.13-.881,3.076,3.076,0,0,1-.868-2.244A3.071,3.071,0,0,1,29.038,1.8a3.013,3.013,0,0,1,4.258,0,3.067,3.067,0,0,1,.87,2.242A3.072,3.072,0,0,1,33.3,6.29a2.888,2.888,0,0,1-2.128.881m0-6.921A3.579,3.579,0,0,0,28.5,1.35a3.732,3.732,0,0,0-1.071,2.7,3.732,3.732,0,0,0,1.071,2.7,3.775,3.775,0,0,0,5.327,0,3.741,3.741,0,0,0,1.07-2.7,3.734,3.734,0,0,0-1.075-2.691A3.584,3.584,0,0,0,31.167.25m0,7.843a3.816,3.816,0,0,1-2.842-1.175,3.979,3.979,0,0,1-1.141-2.872,3.976,3.976,0,0,1,1.141-2.87A4.009,4.009,0,0,1,34,1.181,3.969,3.969,0,0,1,35.15,4.047a3.978,3.978,0,0,1-1.141,2.872,3.818,3.818,0,0,1-2.842,1.175" transform="translate(6.831 0)" fill="#fff" fill-rule="evenodd"/>
        <path id="Fill-20" d="M34.533,7.742V.234h1.174l3.649,5.84H39.4l-.043-1.446V.234h.966V7.742H39.314L35.5,1.618h-.043L35.5,3.066V7.742Z" transform="translate(8.677 0.059)" fill="#fff" fill-rule="evenodd"/>
        <path id="Fill-21" d="M39.409,7.642h.812V.385h-.716V4.653l.045,1.573h-.239L35.663.385h-.98V7.642H35.4V3.091l-.045-1.573h.239l.038.06Zm1.062.25h-1.2l-.038-.059-3.615-5.8.029,1.055v4.8H34.433V.134H35.8l3.484,5.578-.029-1.056V.134h1.215Z" transform="translate(8.652 0.033)" fill="#fff" fill-rule="evenodd"/>
        <path id="Fill-22" d="M82.452,26.489h2.335V10.847H82.452Zm21.03-10.008-2.676,6.782h-.081l-2.778-6.782H95.433L99.6,25.96l-2.375,5.273h2.435l6.419-14.751ZM90.24,24.712c-.765,0-1.832-.383-1.832-1.329,0-1.207,1.329-1.67,2.476-1.67a4.165,4.165,0,0,1,2.133.524,2.832,2.832,0,0,1-2.778,2.475Zm.282-8.574a4.383,4.383,0,0,0-4.165,2.395l2.073.866a2.21,2.21,0,0,1,2.132-1.147,2.25,2.25,0,0,1,2.456,2.013v.16a5.169,5.169,0,0,0-2.435-.6c-2.235,0-4.508,1.227-4.508,3.521a3.614,3.614,0,0,0,3.884,3.442,3.292,3.292,0,0,0,2.978-1.53h.081v1.207h2.254v-6c0-2.777-2.073-4.327-4.75-4.327ZM76.093,18.386H72.772V13.024h3.321a2.681,2.681,0,1,1,0,5.362Zm-.06-7.539h-5.6V26.489h2.335V20.562h3.261a4.955,4.955,0,0,0,5.13-4.857,4.955,4.955,0,0,0-5.13-4.857ZM45.525,24.715a3.054,3.054,0,0,1-2.963-3.2,3.079,3.079,0,0,1,2.963-3.246,3,3,0,0,1,2.842,3.246,2.973,2.973,0,0,1-2.842,3.2Zm2.68-7.357h-.08a3.682,3.682,0,0,0-2.8-1.189,5.326,5.326,0,0,0,0,10.643,3.624,3.624,0,0,0,2.8-1.21h.08v.767c0,2.036-1.087,3.124-2.842,3.124a2.945,2.945,0,0,1-2.681-1.9l-2.036.847a5.071,5.071,0,0,0,4.717,3.144c2.742,0,5.06-1.613,5.06-5.543V16.49H48.205Zm3.831,9.132h2.339V10.846H52.036Zm5.786-5.16a2.918,2.918,0,0,1,2.782-3.1,2.061,2.061,0,0,1,1.976,1.129Zm7.257-1.774a4.949,4.949,0,0,0-4.557-3.386A5.058,5.058,0,0,0,55.5,21.49a5.209,5.209,0,0,0,5.283,5.322,5.293,5.293,0,0,0,4.434-2.359l-1.814-1.21a3.04,3.04,0,0,1-2.62,1.471,2.706,2.706,0,0,1-2.58-1.612l7.116-2.944ZM8.386,17.8v2.259h5.4a4.712,4.712,0,0,1-1.23,2.843,5.536,5.536,0,0,1-4.173,1.652,6.007,6.007,0,0,1,0-12.013,5.76,5.76,0,0,1,4.073,1.612L14.05,12.56a7.875,7.875,0,0,0-5.664-2.279A8.381,8.381,0,0,0,0,18.547a8.38,8.38,0,0,0,8.386,8.265,7.555,7.555,0,0,0,5.766-2.319,7.462,7.462,0,0,0,1.956-5.282,7.31,7.31,0,0,0-.123-1.411Zm13.863,6.914a3.079,3.079,0,0,1-3-3.225,3.011,3.011,0,1,1,6.007,0,3.078,3.078,0,0,1-3,3.225Zm0-8.546A5.322,5.322,0,1,0,27.59,21.49a5.245,5.245,0,0,0-5.342-5.322ZM33.9,24.715a3.079,3.079,0,0,1-3-3.225,3.011,3.011,0,1,1,6.007,0,3.078,3.078,0,0,1-3,3.225Zm0-8.546a5.322,5.322,0,1,0,5.342,5.322A5.245,5.245,0,0,0,33.9,16.169Z" transform="translate(0 2.583)" fill="#fff" fill-rule="evenodd"/>
      </g>
      <g id="Group-6" transform="translate(15.432 8.974)">
        <path id="Fill-10" d="M14.222,12.493,2.86,25.131l15.033-8.556Z" transform="translate(0.641 2.924)" fill="#fff" fill-rule="evenodd"/>
        <path id="Fill-12" d="M1.1.211A.794.794,0,0,0,.062.967V28.854a.794.794,0,0,0,1.037.756l13.216-14.7Z" transform="translate(-0.062 -0.172)" fill="#fff" fill-rule="evenodd"/>
        <path id="Fill-14" d="M2.86,1.309,14.222,13.947l3.67-4.082Z" transform="translate(0.641 0.113)" fill="#fff" fill-rule="evenodd"/>
        <path id="Fill-16-2" data-name="Fill-16" d="M22.641,12.125,16.3,8.513l-3.867,4.3,3.867,4.3L22.641,13.5a.794.794,0,0,0,0-1.38" transform="translate(3.045 1.924)" fill="#fff" fill-rule="evenodd"/>
      </g>
      <path id="Combined-Shape" d="M7.508,0H162.665a7.507,7.507,0,0,1,7.508,7.508V40.041a7.507,7.507,0,0,1-7.508,7.508H7.508A7.508,7.508,0,0,1,0,40.041V7.508H0A7.508,7.508,0,0,1,7.508,0Zm0,1.251h0A6.256,6.256,0,0,0,1.251,7.508h0V40.041A6.256,6.256,0,0,0,7.508,46.3H162.665a6.257,6.257,0,0,0,6.256-6.256V7.508a6.257,6.257,0,0,0-6.256-6.256Z" transform="translate(0.34 0)" fill="#fff" fill-rule="evenodd"/>
    </g>
  </g>
</svg>
