<?xml version="1.0" encoding="utf-8"?>
<!-- Generator: Adobe Illustrator 23.0.1, SVG Export Plug-In . SVG Version: 6.00 Build 0)  -->
<svg version="1.1" id="Badges" xmlns="http://www.w3.org/2000/svg" xmlns:xlink="http://www.w3.org/1999/xlink" x="0px" y="0px"
	 width="160px" height="50px" viewBox="0 0 160 50" style="enable-background:new 0 0 160 50;" xml:space="preserve">
<style type="text/css">
	.st0{fill-rule:evenodd;clip-rule:evenodd;fill:url(#SVGID_1_);}
	.st1{fill-rule:evenodd;clip-rule:evenodd;fill:url(#SVGID_2_);}
	.st2{fill-rule:evenodd;clip-rule:evenodd;fill:url(#SVGID_3_);}
	.st3{fill-rule:evenodd;clip-rule:evenodd;fill:url(#SVGID_4_);}
	.st4{fill-rule:evenodd;clip-rule:evenodd;fill:#FFFFFF;}
	.st5{fill:#FFFFFF;}
</style>
<g>
	<path d="M155,50H5c-2.8,0-5-2.3-5-5V5c0-2.8,2.3-5,5-5h150c2.8,0,5,2.3,5,5v40C160,47.8,157.8,50,155,50z"/>
	
		<linearGradient id="SVGID_1_" gradientUnits="userSpaceOnUse" x1="20.3223" y1="516.2199" x2="27.3201" y2="544.9585" gradientTransform="matrix(1 0 0 1 0 -508)">
		<stop  offset="0" style="stop-color:#006884"/>
		<stop  offset="1" style="stop-color:#8AD1D0"/>
	</linearGradient>
	<path class="st0" d="M12.3,24.5V11.4c0-0.8,0.6-1.4,1.3-1.4s0.9,0.1,1.3,0.4l24.1,13.3c0.5,0.3,0.8,0.6,0.8,1c0,0.4-0.3,0.8-0.8,1
		L14.8,38.9c-0.3,0.1-0.6,0.4-1.3,0.4s-1.3-0.6-1.3-1.4V24.5z"/>
	
		<linearGradient id="SVGID_2_" gradientUnits="userSpaceOnUse" x1="11.7829" y1="520.338" x2="30.8529" y2="530.6473" gradientTransform="matrix(1 0 0 1 0 -508)">
		<stop  offset="0" style="stop-color:#24BBB6"/>
		<stop  offset="1" style="stop-color:#DBE692"/>
	</linearGradient>
	<path class="st1" d="M27.9,24.6L13.3,10c0.1,0,0.1,0,0.3,0c0.6,0,0.9,0.1,1.3,0.4l17.8,9.8L27.9,24.6z"/>
	
		<linearGradient id="SVGID_3_" gradientUnits="userSpaceOnUse" x1="33.75" y1="537.5251" x2="33.75" y2="527.5896" gradientTransform="matrix(1 0 0 1 0 -508)">
		<stop  offset="0" style="stop-color:#FCC072"/>
		<stop  offset="1" style="stop-color:#F58A5B"/>
	</linearGradient>
	<path class="st2" d="M32.4,29l-4.5-4.5l4.6-4.6l6.4,3.5c0.5,0.3,0.8,0.6,0.8,1s-0.3,0.8-0.8,1L32.4,29z"/>
	
		<linearGradient id="SVGID_4_" gradientUnits="userSpaceOnUse" x1="15.4564" y1="549.55" x2="30.521" y2="534.2185" gradientTransform="matrix(1 0 0 1 0 -508)">
		<stop  offset="0" style="stop-color:#712B8F"/>
		<stop  offset="1" style="stop-color:#EA1D27"/>
	</linearGradient>
	<path class="st3" d="M13.4,39L13.4,39l14.5-14.5l4.5,4.5l-17.6,9.6C14.4,38.9,14.1,39,13.4,39C13.5,39,13.5,39,13.4,39z"/>
	<path class="st4" d="M88.9,42.4c-0.6-0.5-1.1-1.4-1.4-1.9l2-0.9c0.1,0.3,0.4,0.6,0.6,1c0.5,0.5,1.3,1,2,1c0.7,0,1.6-0.4,2.1-1
		c0.4-0.6,0.6-1.3,0.6-2.1v-0.8c-1.5,1.9-4.6,1.6-6.4-0.4c-1.9-2-1.9-5.4,0-7.4c1.9-1.9,4.6-2.1,6.3-0.4l0,0v-0.9h2.1v9.4
		c0,2.4-0.9,3.8-2,4.6c-0.8,0.6-1.9,0.9-2.9,0.9C90.9,43.5,89.8,43.1,88.9,42.4L88.9,42.4z M141.3,42.9L141.3,42.9l2.1-5l-3.8-8.6
		h2.1l2.6,6.1l2.6-6.1h2.1l-5.8,13.6H141.3L141.3,42.9z M131.1,38.1L131.1,38.1c-0.6-0.6-0.9-1.5-0.9-2.4c0-0.8,0.3-1.5,0.8-2
		c0.9-0.9,2.1-1.3,3.5-1.3c0.9,0,1.6,0.1,2.3,0.5c0-1.5-1.3-2.1-2.3-2.1c-0.9,0-1.8,0.5-2.1,1.4l-1.9-0.8c0.4-0.9,1.4-2.5,3.9-2.5
		c1.3,0,2.5,0.4,3.2,1.3c0.8,0.9,1,1.9,1,3.3v5.3h-2.1v-0.9c-0.3,0.4-0.8,0.6-1.1,0.9c-0.5,0.3-1.1,0.4-1.8,0.4
		C132.9,39,131.8,38.8,131.1,38.1L131.1,38.1z M64.5,33.6L64.5,33.6c0-2.5,1.9-5.3,5.3-5.3c3.3,0,5.3,2.8,5.3,5.3s-1.9,5.3-5.3,5.3
		C66.4,38.9,64.5,36.1,64.5,33.6L64.5,33.6z M75.8,33.6L75.8,33.6c0-2.5,1.9-5.3,5.2-5.3c3.3,0,5.3,2.8,5.3,5.3s-1.9,5.3-5.3,5.3
		C77.8,38.9,75.8,36.1,75.8,33.6L75.8,33.6z M50.4,36.4L50.4,36.4c-3.1-3.1-3-8.3,0.1-11.5c1.6-1.6,3.6-2.4,5.8-2.4
		c2,0,4,0.8,5.5,2.3l-1.5,1.6c-2.3-2.2-5.9-2.1-8,0.1c-2.2,2.4-2.2,6,0,8.4c2.3,2.4,6,2.5,8.3,0.1c0.8-0.8,1-1.8,1.1-2.8h-5.3V30
		h7.4c0.1,0.5,0.1,1.1,0.1,1.8c0,1.9-0.8,3.8-2,5c-1.4,1.4-3.4,2.1-5.4,2.1C54.3,38.8,52,38,50.4,36.4L50.4,36.4z M103.3,37.3
		L103.3,37.3c-1.9-2-1.9-5.4,0-7.5c1.9-2,5-2,6.8,0c0.6,0.6,1,1.5,1.4,2.4l-6.9,2.9c0.4,0.9,1.3,1.6,2.5,1.6c1.1,0,1.9-0.4,2.6-1.5
		l1.9,1.3l0,0c-0.3,0.3-0.5,0.5-0.6,0.8C108.8,39.3,105.1,39.3,103.3,37.3L103.3,37.3z M116.3,38.8L116.3,38.8V24.9h4.5
		c2.6,0,4.8,1.9,4.8,4.1s-1.9,4.1-4.3,4.1h-2.8v5.5L116.3,38.8L116.3,38.8z M126.8,38.8L126.8,38.8V24.9h2.1v13.9H126.8L126.8,38.8z
		 M98.5,38.5L98.5,38.5V23h2.3v15.5H98.5L98.5,38.5z M136.6,34.6L136.6,34.6c-0.5-0.4-1.3-0.5-2-0.5c-1.5,0-2.4,0.8-2.4,1.6
		s0.9,1.4,1.8,1.4C135.3,37.1,136.6,36.1,136.6,34.6L136.6,34.6z M72.6,33.6L72.6,33.6c0-1.5-1-3.1-2.9-3.1s-2.9,1.6-2.9,3.1
		s1,3.1,2.9,3.1C71.5,36.8,72.6,35.1,72.6,33.6L72.6,33.6z M83.9,33.6L83.9,33.6c0-1.5-1-3.1-2.9-3.1s-2.9,1.6-2.9,3.1
		s1,3.1,2.9,3.1S83.9,35.1,83.9,33.6L83.9,33.6z M95,34.5L95,34.5c0-0.1,0-0.3,0.1-0.4l0,0c0-0.1,0-0.4,0-0.5c0-0.1,0-0.4,0-0.5V33
		c0-0.1-0.1-0.4-0.1-0.5c-0.4-1.3-1.5-2.1-2.6-2.1c-1.5,0-2.7,1.5-2.7,3.1c0,1.8,1.3,3.1,2.9,3.1C93.5,36.8,94.5,35.9,95,34.5
		L95,34.5z M104.1,33.4L104.1,33.4l4.6-2c-0.5-0.9-1.3-1.1-1.9-1.1C105,30.4,103.9,32.4,104.1,33.4L104.1,33.4z M123.3,29.1
		L123.3,29.1c0-1.3-1-2.1-2.4-2.1h-2.5v4.4h2.6C122.3,31.4,123.3,30.4,123.3,29.1z"/>
	<polygon class="st4" points="142.9,40.4 142.9,40.4 142.8,40.4 142.8,40.4 142.8,40.3 142.8,40.3 142.9,40.3 142.9,40.3 
		142.8,40.3 142.8,40.3 142.8,40.4 142.8,40.4 	"/>
	<path class="st4" d="M142.9,40.4L142.9,40.4C142.9,40.3,142.9,40.3,142.9,40.4L142.9,40.4C142.9,40.3,142.9,40.3,142.9,40.4
		L142.9,40.4L142.9,40.4L142.9,40.4L142.9,40.4L142.9,40.4L142.9,40.4L142.9,40.4L142.9,40.4z M142.9,40.3L142.9,40.3L142.9,40.3
		L142.9,40.3L142.9,40.3L142.9,40.3L142.9,40.3L142.9,40.3z"/>
	<polygon class="st4" points="142.9,40.4 142.9,40.4 142.9,40.3 142.9,40.3 142.9,40.3 142.9,40.3 142.9,40.3 142.9,40.3 
		142.9,40.3 142.9,40.3 	"/>
	<path class="st4" d="M142.9,40.4L142.9,40.4L142.9,40.4L142.9,40.4L142.9,40.4L142.9,40.4L142.9,40.4L142.9,40.4L142.9,40.4
		L142.9,40.4z M142.9,40.3L142.9,40.3L142.9,40.3L142.9,40.3L142.9,40.3L142.9,40.3L142.9,40.3z"/>
	<polygon class="st4" points="142.9,40.3 142.9,40.3 142.9,40.3 142.9,40.3 142.9,40.4 142.9,40.4 	"/>
	<polygon class="st4" points="142.9,40.4 142.9,40.4 142.9,40.3 142.9,40.3 142.9,40.3 142.9,40.3 142.9,40.3 142.9,40.3 
		142.9,40.3 142.9,40.3 	"/>
	<path class="st4" d="M142.9,40.4L142.9,40.4C142.9,40.3,142.9,40.3,142.9,40.4L142.9,40.4L142.9,40.4L142.9,40.4L142.9,40.4
		L142.9,40.4z M142.9,40.4L142.9,40.4L142.9,40.4L142.9,40.4L142.9,40.4L142.9,40.4C142.9,40.3,142.9,40.3,142.9,40.4L142.9,40.4z"
		/>
	<path class="st4" d="M143,40.4L143,40.4C143,40.3,143,40.3,143,40.4C143,40.3,143,40.3,143,40.4L143,40.4
		C143,40.3,143,40.3,143,40.4L143,40.4L143,40.4L143,40.4L143,40.4L143,40.4z M143,40.3L143,40.3L143,40.3L143,40.3L143,40.3
		L143,40.3L143,40.3L143,40.3L143,40.3z M143,40.4L143,40.4L143,40.4L143,40.4L143,40.4L143,40.4C143,40.3,143,40.3,143,40.4
		L143,40.4z"/>
	<polygon class="st4" points="143,40.3 143,40.3 143,40.3 143,40.3 143,40.3 143,40.3 143,40.3 143,40.3 143,40.4 143,40.4 	"/>
	<polygon class="st4" points="143,40.4 143,40.4 143,40.3 143,40.3 	"/>
	<path class="st4" d="M143,40.4L143,40.4C143,40.3,143,40.3,143,40.4C143,40.3,143,40.3,143,40.4L143,40.4L143,40.4L143,40.4
		L143,40.4z M143,40.3L143,40.3C143,40.4,143,40.4,143,40.3C143,40.4,143,40.4,143,40.3L143,40.3L143,40.3L143,40.3L143,40.3z"/>
	<path class="st4" d="M143,40.4L143,40.4L143,40.4L143,40.4L143,40.4L143,40.4L143,40.4L143,40.4L143,40.4
		C143,40.3,143,40.3,143,40.4C143,40.3,143,40.3,143,40.4L143,40.4C143,40.3,143,40.3,143,40.4C143,40.3,143,40.3,143,40.4L143,40.4
		L143,40.4L143,40.4L143,40.4z"/>
	<path class="st4" d="M143.1,40.4L143.1,40.4C143.1,40.3,143.1,40.3,143.1,40.4C143,40.3,143,40.3,143.1,40.4L143.1,40.4
		C143,40.4,143,40.4,143.1,40.4L143.1,40.4L143.1,40.4z M143.1,40.3L143.1,40.3C143.1,40.4,143.1,40.4,143.1,40.3
		C143.1,40.4,143,40.4,143.1,40.3L143.1,40.3C143,40.3,143.1,40.3,143.1,40.3L143.1,40.3L143.1,40.3z"/>
	<polygon class="st4" points="143.1,40.4 143.1,40.3 143.1,40.3 143.1,40.3 143.1,40.3 143.1,40.3 143.1,40.4 143.1,40.4 
		143.1,40.3 143.1,40.3 143.1,40.4 143.1,40.4 143.1,40.3 143.1,40.3 	"/>
	<path class="st4" d="M143.1,40.4L143.1,40.4L143.1,40.4L143.1,40.4L143.1,40.4L143.1,40.4L143.1,40.4L143.1,40.4L143.1,40.4
		L143.1,40.4z M143.1,40.3L143.1,40.3L143.1,40.3L143.1,40.3L143.1,40.3L143.1,40.3L143.1,40.3z"/>
	<path class="st4" d="M143.1,40.4C143.1,40.3,143.1,40.3,143.1,40.4C143.1,40.3,143.1,40.3,143.1,40.4
		C143.1,40.3,143.1,40.3,143.1,40.4C143.1,40.3,143.1,40.3,143.1,40.4L143.1,40.4C143.1,40.3,143.1,40.3,143.1,40.4
		C143.1,40.3,143.1,40.3,143.1,40.4C143.1,40.3,143.1,40.3,143.1,40.4C143.1,40.3,143.1,40.3,143.1,40.4L143.1,40.4L143.1,40.4
		L143.1,40.4L143.1,40.4L143.1,40.4z"/>
	<polygon class="st4" points="143.3,40.3 143.1,40.3 143.1,40.3 143.3,40.3 143.3,40.4 143.3,40.4 	"/>
	<polygon class="st4" points="143.3,40.4 143.3,40.4 143.3,40.3 143.3,40.3 143.3,40.3 143.3,40.3 143.3,40.3 143.3,40.3 
		143.3,40.3 143.3,40.3 	"/>
	<path class="st4" d="M143.3,40.4L143.3,40.4C143.3,40.3,143.3,40.3,143.3,40.4L143.3,40.4C143.3,40.3,143.3,40.3,143.3,40.4
		L143.3,40.4L143.3,40.4L143.3,40.4L143.3,40.4L143.3,40.4L143.3,40.4L143.3,40.4L143.3,40.4z M143.3,40.3L143.3,40.3L143.3,40.3
		L143.3,40.3L143.3,40.3L143.3,40.3L143.3,40.3L143.3,40.3z"/>
	<path class="st5" d="M48.6,12.6c0-2.3,1.6-3.6,3.6-3.6c1.4,0,2.3,0.6,2.9,1.5l-1,0.6c-0.4-0.5-1-0.9-1.9-0.9c-1.4,0-2.4,1-2.4,2.5
		s1,2.5,2.4,2.5c0.7,0,1.4-0.4,1.6-0.6v-1.1h-2v-1.1h3.4V15c-0.6,0.8-1.6,1.3-2.9,1.3C50.3,16.3,48.6,14.8,48.6,12.6z"/>
	<path class="st5" d="M56.8,16.1v-7h4.8v1.1h-3.6V12h3.5v1.1h-3.5v2h3.6v1.1L56.8,16.1L56.8,16.1z"/>
	<path class="st5" d="M65,16.1v-5.9h-2.1V9.1h5.5v1.1h-2.1v5.9H65z"/>
	<path class="st5" d="M72.6,16.1v-7h1.3v7H72.6z"/>
	<path class="st5" d="M77.3,16.1v-5.9h-2.1V9.1h5.5v1.1h-2.1v5.9H77.3z"/>
	<path class="st5" d="M84.6,12.6c0-2.1,1.5-3.6,3.6-3.6c2.1,0,3.6,1.5,3.6,3.6s-1.5,3.6-3.6,3.6S84.6,14.6,84.6,12.6z M90.5,12.6
		c0-1.5-0.9-2.5-2.4-2.5c-1.4,0-2.4,1.1-2.4,2.5c0,1.5,0.9,2.5,2.4,2.5C89.6,15.1,90.5,14,90.5,12.6z"/>
	<path class="st5" d="M98.1,16.1l-3.6-5v5h-1.3v-7h1.3l3.6,4.9V9.1h1.3v7H98.1z"/>
</g>
</svg>
