<?xml version="1.0" encoding="utf-8"?>
<!-- Generator: Adobe Illustrator 23.0.1, SVG Export Plug-In . SVG Version: 6.00 Build 0)  -->
<svg version="1.1" id="Badges" xmlns="http://www.w3.org/2000/svg" xmlns:xlink="http://www.w3.org/1999/xlink" x="0px" y="0px"
	 width="160px" height="50px" viewBox="0 0 160 50" style="enable-background:new 0 0 160 50;" xml:space="preserve">
<style type="text/css">
	.st0{fill:#FFFFFF;}
</style>
<g>
	<path d="M155,50H5c-2.8,0-5-2.3-5-5V5c0-2.8,2.3-5,5-5h150c2.8,0,5,2.3,5,5v40C160,47.8,157.8,50,155,50z"/>
	<path class="st0" d="M33.8,24.8c0-3.9,3.3-5.8,3.4-5.9c-1.9-2.6-4.6-3-5.6-3.1c-2.4-0.2-4.7,1.4-5.9,1.4c-1.3,0-3.1-1.4-5.1-1.4
		c-2.6,0-5,1.5-6.4,3.9c-2.8,4.8-0.8,11.8,1.9,15.6c1.4,1.9,2.9,4,4.9,3.9c2-0.1,2.8-1.3,5.1-1.3s3,1.3,5.1,1.3s3.5-1.9,4.8-3.8
		c1.5-2.1,2.1-4.3,2.1-4.4C37.9,30.9,33.8,29.4,33.8,24.8z"/>
	<path class="st0" d="M29.9,13.3c1-1.4,1.8-3.1,1.6-5C30,8.4,28,9.3,27,10.6c-1,1.1-1.9,3-1.6,4.8C27,15.5,28.8,14.5,29.9,13.3z"/>
	<path class="st0" d="M62.3,38.9h-2.8L58,34.1h-5.3l-1.4,4.8h-2.6L54,22.8h3.3L62.3,38.9z M57.5,32.1l-1.4-4.2
		c-0.1-0.4-0.4-1.5-0.9-3l0,0c-0.1,0.6-0.4,1.8-0.7,3l-1.4,4.2H57.5z"/>
	<path class="st0" d="M75.6,33c0,2-0.5,3.5-1.6,4.8c-1,1-2.1,1.5-3.6,1.5s-2.6-0.5-3.3-1.6l0,0v6.1h-2.6V31.3c0-1.3,0-2.5-0.1-3.9
		h2.2l0.1,1.9l0,0c0.9-1.4,2.1-2.1,3.9-2.1c1.4,0,2.5,0.5,3.4,1.6C75.1,29.8,75.6,31.1,75.6,33z M73,33c0-1.1-0.3-2.1-0.8-2.8
		c-0.5-0.8-1.3-1.1-2.2-1.1c-0.6,0-1.3,0.3-1.8,0.6c-0.5,0.4-0.9,1-1,1.6c-0.1,0.4-0.1,0.6-0.1,0.8v2c0,0.9,0.3,1.5,0.7,2.1
		c0.5,0.6,1.3,0.9,2,0.9c1,0,1.8-0.4,2.3-1.1C72.8,35.3,73,34.3,73,33z"/>
	<path class="st0" d="M89,33c0,2-0.5,3.5-1.6,4.8c-1,1-2.1,1.5-3.6,1.5c-1.5,0-2.6-0.5-3.3-1.6l0,0v6.1h-2.6V31.3
		c0-1.3,0-2.5-0.1-3.9H80l0.1,1.9l0,0c0.9-1.4,2.1-2.1,3.9-2.1c1.4,0,2.5,0.5,3.4,1.6C88.5,29.8,89,31.1,89,33z M86.4,33
		c0-1.1-0.3-2.1-0.8-2.8c-0.5-0.8-1.3-1.1-2.3-1.1c-0.6,0-1.3,0.3-1.8,0.6c-0.5,0.4-0.9,1-1,1.6c-0.1,0.4-0.1,0.6-0.1,0.8v2
		c0,0.9,0.2,1.5,0.8,2.1c0.5,0.6,1.3,0.9,2,0.9c1,0,1.8-0.4,2.3-1.1C86.1,35.3,86.4,34.3,86.4,33z"/>
	<path class="st0" d="M104,34.4c0,1.4-0.5,2.5-1.4,3.4c-1,1-2.5,1.4-4.4,1.4c-1.8,0-3.1-0.4-4.1-1l0.6-2.1c1.1,0.6,2.4,1,3.8,1
		c1,0,1.8-0.3,2.3-0.6c0.5-0.5,0.8-1,0.8-1.8c0-0.6-0.3-1.3-0.6-1.6c-0.5-0.5-1.3-0.9-2.3-1.2c-2.9-1-4.3-2.6-4.3-4.6
		c0-1.4,0.5-2.4,1.5-3.3c1-0.9,2.3-1.3,4-1.3c1.5,0,2.6,0.3,3.6,0.8l-0.6,2.1c-0.9-0.5-1.9-0.8-3.1-0.8c-0.9,0-1.6,0.3-2.1,0.6
		c-0.4,0.4-0.6,0.9-0.6,1.5s0.3,1.1,0.8,1.6c0.4,0.4,1.3,0.8,2.4,1.3c1.4,0.5,2.4,1.3,3.1,2C103.6,32.4,104,33.3,104,34.4z"/>
	<path class="st0" d="M112.5,29.3h-2.9v5.6c0,1.4,0.5,2.1,1.5,2.1c0.5,0,0.9,0,1.1-0.1l0.1,2c-0.5,0.3-1.1,0.3-2,0.3
		c-1,0-1.9-0.3-2.4-0.9c-0.6-0.6-0.9-1.6-0.9-3.1v-5.9h-1.8v-2h1.8v-2.1l2.5-0.8v2.9h2.9V29.3z"/>
	<path class="st0" d="M125.4,33c0,1.8-0.5,3.3-1.5,4.4c-1.1,1.1-2.5,1.8-4.3,1.8c-1.8,0-3.1-0.6-4.1-1.8c-1-1.1-1.5-2.5-1.5-4.3
		s0.5-3.3,1.6-4.4c1-1.1,2.5-1.8,4.3-1.8c1.8,0,3.1,0.6,4.1,1.8C124.9,29.9,125.4,31.3,125.4,33z M122.6,33.1c0-1.1-0.3-2-0.8-2.8
		c-0.5-0.9-1.4-1.4-2.4-1.4c-1,0-1.9,0.5-2.4,1.4c-0.5,0.8-0.8,1.8-0.8,2.8c0,1.1,0.2,2,0.8,2.8c0.5,0.9,1.4,1.4,2.4,1.4
		c1,0,1.8-0.5,2.4-1.4C122.4,35.1,122.6,34.1,122.6,33.1z"/>
	<path class="st0" d="M133.8,29.5c-0.3,0-0.5-0.1-0.9-0.1c-0.9,0-1.6,0.4-2.1,1c-0.4,0.6-0.6,1.4-0.6,2.3v6.1h-2.6v-8
		c0-1.4,0-2.5-0.1-3.6h2.3l0.1,2.3h0.1c0.3-0.8,0.8-1.4,1.3-1.9c0.6-0.4,1.3-0.6,1.9-0.6c0.3,0,0.5,0,0.6,0L133.8,29.5L133.8,29.5z"
		/>
	<path class="st0" d="M145.3,32.5c0,0.5,0,0.9-0.1,1.1h-7.8c0,1.1,0.4,2,1.1,2.6c0.6,0.5,1.5,0.9,2.5,0.9c1.1,0,2.3-0.1,3.1-0.5
		l0.4,1.8c-1.1,0.5-2.4,0.8-3.9,0.8c-1.8,0-3.3-0.5-4.3-1.6c-1-1-1.5-2.5-1.5-4.3s0.5-3.3,1.4-4.4c1-1.3,2.4-1.9,4.1-1.9
		c1.6,0,3,0.6,3.8,1.9C145,29.9,145.3,31.1,145.3,32.5z M142.9,31.9c0-0.8-0.1-1.4-0.5-2c-0.5-0.8-1.1-1.1-2-1.1s-1.5,0.4-2,1
		c-0.4,0.5-0.6,1.3-0.8,2h5.3V31.9z"/>
	<path class="st0" d="M56.8,12.9c0,1.4-0.4,2.5-1.3,3.3c-0.7,0.6-1.9,1-3.4,1c-0.7,0-1.4,0-1.9-0.1V9.3c0.6-0.1,1.4-0.1,2.3-0.1
		c1.4,0,2.4,0.3,3.1,0.9C56.3,10.6,56.8,11.6,56.8,12.9z M55.4,12.9c0-0.9-0.3-1.6-0.8-2.1S53.4,10,52.5,10c-0.4,0-0.8,0-1,0.1V16
		c0.1,0,0.5,0,0.9,0c1,0,1.8-0.3,2.3-0.8C55.1,14.7,55.4,13.9,55.4,12.9z"/>
	<path class="st0" d="M63.8,14.1c0,0.9-0.3,1.6-0.8,2.1c-0.5,0.6-1.3,0.9-2.1,0.9s-1.5-0.3-2-0.9c-0.5-0.5-0.8-1.3-0.8-2.1
		s0.3-1.6,0.8-2.1c0.5-0.6,1.3-0.9,2.1-0.9s1.5,0.2,2,0.9C63.5,12.5,63.8,13.3,63.8,14.1z M62.5,14.1c0-0.5-0.1-1-0.4-1.4
		c-0.3-0.5-0.6-0.6-1.1-0.6c-0.5,0-0.9,0.3-1.1,0.6c-0.3,0.4-0.4,0.9-0.4,1.4c0,0.5,0.1,1,0.4,1.4c0.3,0.5,0.6,0.6,1.1,0.6
		c0.5,0,0.9-0.2,1.1-0.8C62.4,15.1,62.5,14.6,62.5,14.1z"/>
	<path class="st0" d="M73.4,11.3L71.6,17h-1.1l-0.8-2.5c-0.3-0.6-0.4-1.3-0.5-1.9l0,0c-0.1,0.6-0.3,1.3-0.5,1.9L68,17h-1.1L65,11.3
		h1.3l0.6,2.8c0.1,0.6,0.3,1.3,0.4,1.9l0,0c0.1-0.5,0.3-1.1,0.5-1.9l0.8-2.8h1l0.8,2.6c0.3,0.6,0.4,1.3,0.5,1.9l0,0
		c0.1-0.6,0.3-1.3,0.4-1.9l0.8-2.6H73.4z"/>
	<path class="st0" d="M79.9,17h-1.3v-3.3c0-1-0.4-1.5-1.1-1.5c-0.4,0-0.6,0.1-0.9,0.4c-0.3,0.3-0.4,0.6-0.4,1V17H75v-4.1
		c0-0.5,0-1,0-1.6h1.1v0.9l0,0c0.1-0.3,0.4-0.5,0.6-0.8c0.4-0.2,0.8-0.4,1.1-0.4c0.5,0,1,0.1,1.4,0.5c0.5,0.4,0.6,1,0.6,1.9V17z"/>
	<path class="st0" d="M83.4,17h-1.3V8.6h1.3V17z"/>
	<path class="st0" d="M90.9,14.1c0,0.9-0.3,1.6-0.8,2.1c-0.5,0.6-1.3,0.9-2.1,0.9c-0.9,0-1.5-0.3-2-0.9c-0.5-0.5-0.7-1.3-0.7-2.1
		s0.2-1.6,0.7-2.1c0.5-0.5,1.3-0.9,2.1-0.9s1.5,0.2,2,0.9C90.6,12.5,90.9,13.3,90.9,14.1z M89.6,14.1c0-0.5-0.1-1-0.4-1.4
		c-0.2-0.5-0.6-0.6-1.1-0.6c-0.5,0-0.9,0.3-1.1,0.6c-0.2,0.4-0.4,0.9-0.4,1.4c0,0.5,0.1,1,0.4,1.4c0.3,0.5,0.6,0.6,1.1,0.6
		c0.5,0,0.9-0.2,1.1-0.8C89.5,15.1,89.6,14.6,89.6,14.1z"/>
	<path class="st0" d="M97,17h-1.1l-0.1-0.6l0,0c-0.4,0.5-1,0.8-1.6,0.8c-0.5,0-1-0.1-1.3-0.5c-0.2-0.4-0.5-0.8-0.5-1.1
		c0-0.8,0.2-1.3,0.9-1.6s1.4-0.5,2.5-0.5v-0.1c0-0.8-0.4-1.1-1.1-1.1c-0.6,0-1,0.1-1.5,0.4l-0.3-0.9c0.5-0.4,1.1-0.5,2-0.5
		c1.5,0,2.3,0.8,2.3,2.4v2.1C97,16.3,97,16.6,97,17z M95.8,15v-0.9c-1.4,0-2.1,0.4-2.1,1.1c0,0.3,0.1,0.5,0.3,0.6
		c0.1,0.1,0.4,0.3,0.6,0.3c0.2,0,0.5-0.1,0.8-0.3c0.2-0.1,0.4-0.4,0.5-0.6C95.8,15.3,95.8,15.1,95.8,15z"/>
	<path class="st0" d="M104.3,17h-1.1v-0.9l0,0c-0.4,0.8-1,1-1.9,1c-0.8,0-1.3-0.2-1.8-0.8c-0.5-0.5-0.6-1.3-0.6-2.1
		c0-0.9,0.2-1.6,0.8-2.3c0.5-0.5,1.1-0.8,1.8-0.8c0.8,0,1.3,0.3,1.6,0.8l0,0V8.8h1.3v6.8C104.3,16,104.3,16.5,104.3,17z M103,14.6
		v-1c0-0.1,0-0.3,0-0.4c-0.1-0.2-0.2-0.5-0.5-0.8c-0.3-0.3-0.5-0.3-0.9-0.3c-0.5,0-0.9,0.3-1.1,0.6c-0.2,0.4-0.4,0.9-0.4,1.5
		s0.1,1,0.4,1.4c0.3,0.4,0.6,0.6,1.1,0.6c0.4,0,0.8-0.1,1-0.5C102.9,15.4,103,15,103,14.6z"/>
	<path class="st0" d="M115.1,14.1c0,0.9-0.3,1.6-0.8,2.1c-0.5,0.6-1.3,0.9-2.1,0.9c-0.9,0-1.5-0.3-2-0.9c-0.5-0.5-0.8-1.3-0.8-2.1
		s0.2-1.6,0.8-2.1c0.5-0.6,1.3-0.9,2.1-0.9c0.9,0,1.5,0.2,2,0.9C114.9,12.5,115.1,13.3,115.1,14.1z M113.8,14.1c0-0.5-0.1-1-0.4-1.4
		c-0.3-0.5-0.6-0.6-1.1-0.6c-0.5,0-0.9,0.3-1.1,0.6s-0.4,0.9-0.4,1.4c0,0.5,0.1,1,0.4,1.4c0.2,0.5,0.6,0.6,1.1,0.6
		c0.5,0,0.9-0.2,1.1-0.8C113.6,15.1,113.8,14.6,113.8,14.1z"/>
	<path class="st0" d="M122,17h-1.3v-3.3c0-1-0.4-1.5-1.1-1.5c-0.4,0-0.6,0.1-0.9,0.4c-0.3,0.3-0.4,0.6-0.4,1V17h-1.3v-4.1
		c0-0.5,0-1,0-1.6h1.1v0.9l0,0c0.1-0.3,0.4-0.5,0.6-0.8c0.4-0.2,0.8-0.4,1.1-0.4c0.5,0,1,0.1,1.4,0.5c0.5,0.4,0.6,1,0.6,1.9V17z"/>
	<path class="st0" d="M130.5,12.3h-1.4V15c0,0.8,0.3,1,0.8,1c0.3,0,0.4,0,0.6,0v1c-0.3,0.1-0.6,0.1-1,0.1c-0.5,0-0.9-0.1-1.1-0.5
		c-0.3-0.3-0.4-0.9-0.4-1.5v-2.9h-0.9v-1h0.9v-1l1.3-0.4v1.4h1.4v1H130.5z"/>
	<path class="st0" d="M137.3,17H136v-3.3c0-1-0.4-1.5-1.1-1.5c-0.6,0-1,0.3-1.3,0.9c0,0.1,0,0.3,0,0.5V17h-1.3V8.6h1.3v3.5l0,0
		c0.4-0.6,1-1,1.8-1c0.5,0,1,0.1,1.3,0.5c0.4,0.4,0.6,1.1,0.6,1.9V17z"/>
	<path class="st0" d="M144.1,13.9c0,0.3,0,0.4,0,0.6h-3.8c0,0.6,0.3,1,0.5,1.3c0.4,0.3,0.8,0.4,1.3,0.4c0.6,0,1.1-0.1,1.5-0.2
		l0.3,0.9c-0.5,0.3-1.1,0.4-1.9,0.4c-0.9,0-1.6-0.2-2.1-0.8c-0.5-0.5-0.8-1.3-0.8-2.1c0-0.9,0.3-1.6,0.8-2.1c0.5-0.6,1.1-0.9,2-0.9
		s1.5,0.3,1.9,0.9C144,12.5,144.1,13.1,144.1,13.9z M143,13.5c0-0.4-0.1-0.8-0.3-1c-0.2-0.4-0.5-0.5-1-0.5c-0.4,0-0.8,0.1-1,0.5
		c-0.3,0.3-0.4,0.6-0.4,1H143z"/>
</g>
</svg>
